<svg width="79" height="9" viewBox="0 0 79 9" fill="none" xmlns="http://www.w3.org/2000/svg">
<path d="M0.77 8V0.0799997H5.4615V1.2295H1.9195V3.4625H4.8015V4.6175H1.9195V8H0.77ZM8.92598 8.165C8.33565 8.165 7.81682 8.03667 7.36948 7.78C6.92582 7.51967 6.57932 7.1585 6.32998 6.6965C6.08432 6.23083 5.96148 5.69183 5.96148 5.0795C5.96148 4.4305 6.08248 3.86767 6.32448 3.391C6.57015 2.91433 6.91115 2.54583 7.34748 2.2855C7.78382 2.02517 8.29165 1.895 8.87098 1.895C9.47598 1.895 9.99115 2.03617 10.4165 2.3185C10.8418 2.59717 11.159 2.995 11.368 3.512C11.5807 4.029 11.665 4.64317 11.621 5.3545H10.4715V4.9365C10.4642 4.24717 10.3322 3.7375 10.0755 3.4075C9.82248 3.0775 9.43565 2.9125 8.91498 2.9125C8.33932 2.9125 7.90665 3.094 7.61698 3.457C7.32732 3.82 7.18248 4.34433 7.18248 5.03C7.18248 5.68267 7.32732 6.18867 7.61698 6.548C7.90665 6.90367 8.32465 7.0815 8.87098 7.0815C9.23032 7.0815 9.54015 7.00083 9.80048 6.8395C10.0645 6.6745 10.2698 6.43983 10.4165 6.1355L11.544 6.493C11.313 7.02467 10.9628 7.43717 10.4935 7.7305C10.0242 8.02017 9.50165 8.165 8.92598 8.165ZM6.80848 5.3545V4.458H11.049V5.3545H6.80848ZM14.425 8.165C13.985 8.165 13.6165 8.08433 13.3195 7.923C13.0225 7.758 12.797 7.54167 12.643 7.274C12.4927 7.00267 12.4175 6.70567 12.4175 6.383C12.4175 6.08233 12.4707 5.81833 12.577 5.591C12.6834 5.36367 12.841 5.17117 13.05 5.0135C13.259 4.85217 13.5157 4.722 13.82 4.623C14.084 4.546 14.3829 4.47817 14.7165 4.4195C15.0502 4.36083 15.4004 4.30583 15.767 4.2545C16.1374 4.20317 16.504 4.15183 16.867 4.1005L16.449 4.3315C16.4564 3.86583 16.3574 3.52117 16.152 3.2975C15.9504 3.07017 15.602 2.9565 15.107 2.9565C14.7954 2.9565 14.5094 3.02983 14.249 3.1765C13.9887 3.3195 13.8072 3.55783 13.7045 3.8915L12.632 3.5615C12.7787 3.05183 13.0574 2.64667 13.468 2.346C13.8824 2.04533 14.4324 1.895 15.118 1.895C15.6497 1.895 16.1117 1.98667 16.504 2.17C16.9 2.34967 17.1897 2.63567 17.373 3.028C17.4684 3.22233 17.527 3.42767 17.549 3.644C17.571 3.86033 17.582 4.09317 17.582 4.3425V8H16.5645V6.6415L16.7625 6.8175C16.5169 7.27217 16.2034 7.61133 15.822 7.835C15.4444 8.055 14.9787 8.165 14.425 8.165ZM14.6285 7.2245C14.9549 7.2245 15.2354 7.16767 15.47 7.054C15.7047 6.93667 15.8935 6.78817 16.0365 6.6085C16.1795 6.42883 16.273 6.24183 16.317 6.0475C16.3794 5.8715 16.4142 5.6735 16.4215 5.4535C16.4325 5.2335 16.438 5.0575 16.438 4.9255L16.812 5.063C16.449 5.118 16.119 5.1675 15.822 5.2115C15.525 5.2555 15.2555 5.2995 15.0135 5.3435C14.7752 5.38383 14.5625 5.43333 14.3755 5.492C14.2179 5.547 14.0767 5.613 13.952 5.69C13.831 5.767 13.7339 5.8605 13.6605 5.9705C13.5909 6.0805 13.556 6.21433 13.556 6.372C13.556 6.526 13.5945 6.669 13.6715 6.801C13.7485 6.92933 13.8659 7.032 14.0235 7.109C14.1812 7.186 14.3829 7.2245 14.6285 7.2245ZM22.4092 8C22.0352 8.07333 21.6686 8.1045 21.3092 8.0935C20.9499 8.0825 20.6291 8.01283 20.3467 7.8845C20.0644 7.75617 19.8517 7.5545 19.7087 7.2795C19.5804 7.03383 19.5107 6.7845 19.4997 6.5315C19.4924 6.27483 19.4887 5.98517 19.4887 5.6625V0.409999H20.6437V5.6075C20.6437 5.84583 20.6456 6.053 20.6492 6.229C20.6566 6.405 20.6951 6.5535 20.7647 6.6745C20.8967 6.90183 21.1057 7.032 21.3917 7.065C21.6814 7.09433 22.0206 7.0815 22.4092 7.0265V8ZM18.3502 2.984V2.06H22.4092V2.984H18.3502ZM25.9001 8.1595C25.4894 8.1595 25.1448 8.0935 24.8661 7.9615C24.5874 7.8295 24.3601 7.65717 24.1841 7.4445C24.0118 7.22817 23.8798 6.9935 23.7881 6.7405C23.6964 6.4875 23.6341 6.24 23.6011 5.998C23.5681 5.756 23.5516 5.54333 23.5516 5.36V2.06H24.7176V4.9805C24.7176 5.2115 24.7359 5.44983 24.7726 5.6955C24.8129 5.9375 24.8863 6.163 24.9926 6.372C25.1026 6.581 25.2548 6.74967 25.4491 6.878C25.6471 7.00633 25.9038 7.0705 26.2191 7.0705C26.4244 7.0705 26.6188 7.0375 26.8021 6.9715C26.9854 6.90183 27.1449 6.79183 27.2806 6.6415C27.4199 6.49117 27.5281 6.29317 27.6051 6.0475C27.6858 5.80183 27.7261 5.503 27.7261 5.151L28.4411 5.4205C28.4411 5.9595 28.3403 6.43617 28.1386 6.8505C27.9369 7.26117 27.6473 7.582 27.2696 7.813C26.8919 8.044 26.4354 8.1595 25.9001 8.1595ZM27.8636 8V6.284H27.7261V2.06H28.8866V8H27.8636ZM30.4292 8V2.06H31.4522V3.501L31.3092 3.314C31.3825 3.12333 31.4778 2.94917 31.5952 2.7915C31.7125 2.63017 31.8482 2.49817 32.0022 2.3955C32.1525 2.2855 32.3193 2.20117 32.5027 2.1425C32.6897 2.08017 32.8803 2.0435 33.0747 2.0325C33.269 2.01783 33.456 2.027 33.6357 2.06V3.138C33.4413 3.08667 33.225 3.072 32.9867 3.094C32.752 3.116 32.5357 3.19117 32.3377 3.3195C32.1507 3.4405 32.0022 3.58717 31.8922 3.7595C31.7858 3.93183 31.7088 4.12433 31.6612 4.337C31.6135 4.546 31.5897 4.76783 31.5897 5.0025V8H30.4292ZM37.2102 8.165C36.6198 8.165 36.101 8.03667 35.6537 7.78C35.21 7.51967 34.8635 7.1585 34.6142 6.6965C34.3685 6.23083 34.2457 5.69183 34.2457 5.0795C34.2457 4.4305 34.3667 3.86767 34.6087 3.391C34.8543 2.91433 35.1953 2.54583 35.6317 2.2855C36.068 2.02517 36.5758 1.895 37.1552 1.895C37.7602 1.895 38.2753 2.03617 38.7007 2.3185C39.126 2.59717 39.4432 2.995 39.6522 3.512C39.8648 4.029 39.9492 4.64317 39.9052 5.3545H38.7557V4.9365C38.7483 4.24717 38.6163 3.7375 38.3597 3.4075C38.1067 3.0775 37.7198 2.9125 37.1992 2.9125C36.6235 2.9125 36.1908 3.094 35.9012 3.457C35.6115 3.82 35.4667 4.34433 35.4667 5.03C35.4667 5.68267 35.6115 6.18867 35.9012 6.548C36.1908 6.90367 36.6088 7.0815 37.1552 7.0815C37.5145 7.0815 37.8243 7.00083 38.0847 6.8395C38.3487 6.6745 38.554 6.43983 38.7007 6.1355L39.8282 6.493C39.5972 7.02467 39.247 7.43717 38.7777 7.7305C38.3083 8.02017 37.7858 8.165 37.2102 8.165ZM35.0927 5.3545V4.458H39.3332V5.3545H35.0927ZM43.4986 8.165C42.945 8.165 42.4665 8.0275 42.0631 7.7525C41.6635 7.4775 41.3536 7.1035 41.1336 6.6305C40.9173 6.15383 40.8091 5.6185 40.8091 5.0245C40.8091 4.42683 40.9191 3.89333 41.1391 3.424C41.3591 2.951 41.6708 2.57883 42.0741 2.3075C42.4811 2.0325 42.9633 1.895 43.5206 1.895C44.0816 1.895 44.5528 2.0325 44.9341 2.3075C45.3191 2.57883 45.6088 2.951 45.8031 3.424C46.0011 3.897 46.1001 4.4305 46.1001 5.0245C46.1001 5.6185 46.0011 6.152 45.8031 6.625C45.6051 7.098 45.3136 7.47383 44.9286 7.7525C44.5436 8.0275 44.067 8.165 43.4986 8.165ZM43.6581 7.1255C44.0358 7.1255 44.3438 7.03567 44.5821 6.856C44.8205 6.67633 44.9946 6.42883 45.1046 6.1135C45.2146 5.79817 45.2696 5.43517 45.2696 5.0245C45.2696 4.61383 45.2128 4.25083 45.0991 3.9355C44.9891 3.62017 44.8168 3.3745 44.5821 3.1985C44.3511 3.0225 44.056 2.9345 43.6966 2.9345C43.3153 2.9345 43.0018 3.028 42.7561 3.215C42.5105 3.402 42.3271 3.65317 42.2061 3.9685C42.0888 4.28383 42.0301 4.63583 42.0301 5.0245C42.0301 5.41683 42.0888 5.7725 42.2061 6.0915C42.3271 6.40683 42.5068 6.658 42.7451 6.845C42.9871 7.032 43.2915 7.1255 43.6581 7.1255ZM45.2696 8V3.7265H45.1376V0.0799997H46.2926V8H45.2696ZM50.0337 8V0.0799997H55.0937V1.1635H51.1832V3.3855H54.4337V4.469H51.1832V6.9165H55.0937V8H50.0337ZM58.0205 8L55.8645 2.06H57.025L58.6035 6.559L60.182 2.06H61.3425L59.1865 8H58.0205ZM64.7531 8.165C64.1628 8.165 63.644 8.03667 63.1966 7.78C62.753 7.51967 62.4065 7.1585 62.1571 6.6965C61.9115 6.23083 61.7886 5.69183 61.7886 5.0795C61.7886 4.4305 61.9096 3.86767 62.1516 3.391C62.3973 2.91433 62.7383 2.54583 63.1746 2.2855C63.611 2.02517 64.1188 1.895 64.6981 1.895C65.3031 1.895 65.8183 2.03617 66.2436 2.3185C66.669 2.59717 66.9861 2.995 67.1951 3.512C67.4078 4.029 67.4921 4.64317 67.4481 5.3545H66.2986V4.9365C66.2913 4.24717 66.1593 3.7375 65.9026 3.4075C65.6496 3.0775 65.2628 2.9125 64.7421 2.9125C64.1665 2.9125 63.7338 3.094 63.4441 3.457C63.1545 3.82 63.0096 4.34433 63.0096 5.03C63.0096 5.68267 63.1545 6.18867 63.4441 6.548C63.7338 6.90367 64.1518 7.0815 64.6981 7.0815C65.0575 7.0815 65.3673 7.00083 65.6276 6.8395C65.8916 6.6745 66.097 6.43983 66.2436 6.1355L67.3711 6.493C67.1401 7.02467 66.79 7.43717 66.3206 7.7305C65.8513 8.02017 65.3288 8.165 64.7531 8.165ZM62.6356 5.3545V4.458H66.8761V5.3545H62.6356ZM72.69 8V5.0795C72.69 4.8485 72.6698 4.612 72.6295 4.37C72.5928 4.12433 72.5195 3.897 72.4095 3.688C72.3031 3.479 72.151 3.31033 71.953 3.182C71.7586 3.05367 71.5038 2.9895 71.1885 2.9895C70.9831 2.9895 70.7888 3.02433 70.6055 3.094C70.4221 3.16 70.2608 3.26817 70.1215 3.4185C69.9858 3.56883 69.8776 3.76683 69.797 4.0125C69.72 4.25817 69.6815 4.557 69.6815 4.909L68.9665 4.6395C68.9665 4.1005 69.0673 3.62567 69.269 3.215C69.4706 2.80067 69.7603 2.478 70.138 2.247C70.5156 2.016 70.9721 1.9005 71.5075 1.9005C71.9181 1.9005 72.2628 1.9665 72.5415 2.0985C72.8201 2.2305 73.0456 2.40467 73.218 2.621C73.394 2.83367 73.5278 3.0665 73.6195 3.3195C73.7111 3.5725 73.7735 3.82 73.8065 4.062C73.8395 4.304 73.856 4.51667 73.856 4.7V8H72.69ZM68.5155 8V2.06H69.544V3.776H69.6815V8H68.5155ZM78.6876 8C78.3136 8.07333 77.9469 8.1045 77.5876 8.0935C77.2282 8.0825 76.9074 8.01283 76.6251 7.8845C76.3427 7.75617 76.1301 7.5545 75.9871 7.2795C75.8587 7.03383 75.7891 6.7845 75.7781 6.5315C75.7707 6.27483 75.7671 5.98517 75.7671 5.6625V0.409999H76.9221V5.6075C76.9221 5.84583 76.9239 6.053 76.9276 6.229C76.9349 6.405 76.9734 6.5535 77.0431 6.6745C77.1751 6.90183 77.3841 7.032 77.6701 7.065C77.9597 7.09433 78.2989 7.0815 78.6876 7.0265V8ZM74.6286 2.984V2.06H78.6876V2.984H74.6286Z" fill="white"/>
</svg>
